<mxfile host="app.diagrams.net" agent="Mozilla/5.0 (Windows NT 10.0; Win64; x64) AppleWebKit/537.36 (KHTML, like Gecko) Chrome/131.0.0.0 Safari/537.36 Edg/131.0.0.0" version="24.8.6">
  <diagram name="Page-1" id="L6rMiypPQ5QBrKajlS9f">
    <mxGraphModel dx="1042" dy="565" grid="1" gridSize="10" guides="1" tooltips="1" connect="1" arrows="1" fold="1" page="1" pageScale="1" pageWidth="850" pageHeight="1100" math="0" shadow="0">
      <root>
        <mxCell id="0" />
        <mxCell id="1" parent="0" />
        <mxCell id="lEu-6JDheyryTQik6XsW-12" value="" style="edgeStyle=orthogonalEdgeStyle;rounded=0;orthogonalLoop=1;jettySize=auto;html=1;" edge="1" parent="1" source="lEu-6JDheyryTQik6XsW-1" target="lEu-6JDheyryTQik6XsW-2">
          <mxGeometry relative="1" as="geometry" />
        </mxCell>
        <mxCell id="lEu-6JDheyryTQik6XsW-1" value="Start" style="ellipse;whiteSpace=wrap;html=1;" vertex="1" parent="1">
          <mxGeometry x="330" width="140" height="80" as="geometry" />
        </mxCell>
        <mxCell id="lEu-6JDheyryTQik6XsW-13" value="" style="edgeStyle=orthogonalEdgeStyle;rounded=0;orthogonalLoop=1;jettySize=auto;html=1;" edge="1" parent="1" source="lEu-6JDheyryTQik6XsW-2" target="lEu-6JDheyryTQik6XsW-3">
          <mxGeometry relative="1" as="geometry" />
        </mxCell>
        <mxCell id="lEu-6JDheyryTQik6XsW-2" value="Nhập a,b và phép tính" style="shape=parallelogram;perimeter=parallelogramPerimeter;whiteSpace=wrap;html=1;fixedSize=1;" vertex="1" parent="1">
          <mxGeometry x="320" y="120" width="160" height="60" as="geometry" />
        </mxCell>
        <mxCell id="lEu-6JDheyryTQik6XsW-14" value="" style="edgeStyle=orthogonalEdgeStyle;rounded=0;orthogonalLoop=1;jettySize=auto;html=1;" edge="1" parent="1" source="lEu-6JDheyryTQik6XsW-3" target="lEu-6JDheyryTQik6XsW-6">
          <mxGeometry relative="1" as="geometry" />
        </mxCell>
        <mxCell id="lEu-6JDheyryTQik6XsW-16" style="edgeStyle=orthogonalEdgeStyle;rounded=0;orthogonalLoop=1;jettySize=auto;html=1;exitX=0.5;exitY=1;exitDx=0;exitDy=0;" edge="1" parent="1" source="lEu-6JDheyryTQik6XsW-3" target="lEu-6JDheyryTQik6XsW-4">
          <mxGeometry relative="1" as="geometry" />
        </mxCell>
        <mxCell id="lEu-6JDheyryTQik6XsW-17" style="edgeStyle=orthogonalEdgeStyle;rounded=0;orthogonalLoop=1;jettySize=auto;html=1;exitX=0.5;exitY=1;exitDx=0;exitDy=0;" edge="1" parent="1" source="lEu-6JDheyryTQik6XsW-3" target="lEu-6JDheyryTQik6XsW-7">
          <mxGeometry relative="1" as="geometry" />
        </mxCell>
        <mxCell id="lEu-6JDheyryTQik6XsW-3" value="Phép tính(op) là gì ?" style="rhombus;whiteSpace=wrap;html=1;" vertex="1" parent="1">
          <mxGeometry x="320" y="220" width="160" height="80" as="geometry" />
        </mxCell>
        <mxCell id="lEu-6JDheyryTQik6XsW-4" value="op = +&lt;div&gt;c = a + b&lt;/div&gt;" style="shape=parallelogram;perimeter=parallelogramPerimeter;whiteSpace=wrap;html=1;fixedSize=1;" vertex="1" parent="1">
          <mxGeometry x="110" y="340" width="120" height="60" as="geometry" />
        </mxCell>
        <mxCell id="lEu-6JDheyryTQik6XsW-5" value="op = -&lt;div&gt;c = a - b&lt;/div&gt;" style="shape=parallelogram;perimeter=parallelogramPerimeter;whiteSpace=wrap;html=1;fixedSize=1;" vertex="1" parent="1">
          <mxGeometry x="250" y="340" width="120" height="60" as="geometry" />
        </mxCell>
        <mxCell id="lEu-6JDheyryTQik6XsW-6" value="op = *&lt;div&gt;c = a * b&lt;/div&gt;" style="shape=parallelogram;perimeter=parallelogramPerimeter;whiteSpace=wrap;html=1;fixedSize=1;" vertex="1" parent="1">
          <mxGeometry x="390" y="340" width="120" height="60" as="geometry" />
        </mxCell>
        <mxCell id="lEu-6JDheyryTQik6XsW-18" value="" style="edgeStyle=orthogonalEdgeStyle;rounded=0;orthogonalLoop=1;jettySize=auto;html=1;" edge="1" parent="1" source="lEu-6JDheyryTQik6XsW-7" target="lEu-6JDheyryTQik6XsW-8">
          <mxGeometry relative="1" as="geometry" />
        </mxCell>
        <mxCell id="lEu-6JDheyryTQik6XsW-19" style="edgeStyle=orthogonalEdgeStyle;rounded=0;orthogonalLoop=1;jettySize=auto;html=1;entryX=0.5;entryY=0;entryDx=0;entryDy=0;" edge="1" parent="1" source="lEu-6JDheyryTQik6XsW-7" target="lEu-6JDheyryTQik6XsW-9">
          <mxGeometry relative="1" as="geometry" />
        </mxCell>
        <mxCell id="lEu-6JDheyryTQik6XsW-7" value="op = /&lt;div&gt;b = ?&lt;/div&gt;" style="rhombus;whiteSpace=wrap;html=1;" vertex="1" parent="1">
          <mxGeometry x="560" y="340" width="150" height="80" as="geometry" />
        </mxCell>
        <mxCell id="lEu-6JDheyryTQik6XsW-20" value="" style="edgeStyle=orthogonalEdgeStyle;rounded=0;orthogonalLoop=1;jettySize=auto;html=1;" edge="1" parent="1" source="lEu-6JDheyryTQik6XsW-8" target="lEu-6JDheyryTQik6XsW-10">
          <mxGeometry relative="1" as="geometry" />
        </mxCell>
        <mxCell id="lEu-6JDheyryTQik6XsW-8" value="Không thể chia cho 0" style="rhombus;whiteSpace=wrap;html=1;" vertex="1" parent="1">
          <mxGeometry x="480" y="450" width="160" height="80" as="geometry" />
        </mxCell>
        <mxCell id="lEu-6JDheyryTQik6XsW-9" value="c = a / b" style="shape=parallelogram;perimeter=parallelogramPerimeter;whiteSpace=wrap;html=1;fixedSize=1;" vertex="1" parent="1">
          <mxGeometry x="680" y="460" width="150" height="70" as="geometry" />
        </mxCell>
        <mxCell id="lEu-6JDheyryTQik6XsW-21" value="" style="edgeStyle=orthogonalEdgeStyle;rounded=0;orthogonalLoop=1;jettySize=auto;html=1;" edge="1" parent="1" source="lEu-6JDheyryTQik6XsW-10" target="lEu-6JDheyryTQik6XsW-11">
          <mxGeometry relative="1" as="geometry" />
        </mxCell>
        <mxCell id="lEu-6JDheyryTQik6XsW-10" value="Hiển thị kết quả or error" style="shape=parallelogram;perimeter=parallelogramPerimeter;whiteSpace=wrap;html=1;fixedSize=1;" vertex="1" parent="1">
          <mxGeometry x="460" y="560" width="200" height="80" as="geometry" />
        </mxCell>
        <mxCell id="lEu-6JDheyryTQik6XsW-11" value="End" style="ellipse;whiteSpace=wrap;html=1;" vertex="1" parent="1">
          <mxGeometry x="480" y="680" width="160" height="80" as="geometry" />
        </mxCell>
        <mxCell id="lEu-6JDheyryTQik6XsW-15" style="edgeStyle=orthogonalEdgeStyle;rounded=0;orthogonalLoop=1;jettySize=auto;html=1;exitX=0.5;exitY=1;exitDx=0;exitDy=0;entryX=0.567;entryY=0.02;entryDx=0;entryDy=0;entryPerimeter=0;" edge="1" parent="1" source="lEu-6JDheyryTQik6XsW-3" target="lEu-6JDheyryTQik6XsW-5">
          <mxGeometry relative="1" as="geometry" />
        </mxCell>
        <mxCell id="lEu-6JDheyryTQik6XsW-22" value="True" style="text;html=1;align=center;verticalAlign=middle;whiteSpace=wrap;rounded=0;" vertex="1" parent="1">
          <mxGeometry x="540" y="410" width="60" height="30" as="geometry" />
        </mxCell>
        <mxCell id="lEu-6JDheyryTQik6XsW-23" value="False" style="text;html=1;align=center;verticalAlign=middle;whiteSpace=wrap;rounded=0;" vertex="1" parent="1">
          <mxGeometry x="710" y="410" width="60" height="30" as="geometry" />
        </mxCell>
      </root>
    </mxGraphModel>
  </diagram>
</mxfile>
